<?xml version="1.0" encoding="utf-8"?>
<!-- Generator: Adobe Illustrator 15.0.0, SVG Export Plug-In . SVG Version: 6.00 Build 0)  -->
<!DOCTYPE svg PUBLIC "-//W3C//DTD SVG 1.1//EN" "http://www.w3.org/Graphics/SVG/1.1/DTD/svg11.dtd">
<svg version="1.1" id="Layer_1" xmlns="http://www.w3.org/2000/svg" xmlns:xlink="http://www.w3.org/1999/xlink" x="0px" y="0px"
	 width="144px" height="72px" viewBox="0 0 144 72" enable-background="new 0 0 144 72" xml:space="preserve">
<g>
	<linearGradient id="SVGID_1_" gradientUnits="userSpaceOnUse" x1="43.3965" y1="34.4375" x2="138.2051" y2="34.4375">
		<stop  offset="0.0061" style="stop-color:#D6A047"/>
		<stop  offset="0.0162" style="stop-color:#DAA84E"/>
		<stop  offset="0.0681" style="stop-color:#EACA6D"/>
		<stop  offset="0.1175" style="stop-color:#F5E283"/>
		<stop  offset="0.1627" style="stop-color:#FDF190"/>
		<stop  offset="0.2" style="stop-color:#FFF695"/>
		<stop  offset="0.4466" style="stop-color:#FFF695"/>
		<stop  offset="0.4848" style="stop-color:#FFF695"/>
		<stop  offset="0.8" style="stop-color:#D6A047"/>
	</linearGradient>
	<path fill="url(#SVGID_1_)" d="M43.702,26.227c0-5.329,4.062-8.429,8.909-8.429c1.268,0,2.489,0.175,3.363,0.393
		c0.873,0.219,1.485,0.438,1.922,0.438c0.48,0,0.786-0.35,1.004-0.655h3.232l3.231,4.367v9.172h-2.882l-3.932-3.668
		C58.202,25.92,57.46,24,55.669,24c-1.572,0-2.314,0.917-2.314,2.227c0,1.136,0.393,1.878,3.318,2.882
		c6.158,2.14,9.74,6.202,9.74,12.797c0,5.502-4.193,9.172-8.561,9.172c-1.834,0-3.581-0.438-4.455-1.049
		c-0.698-0.48-1.44-0.873-2.009-0.873c-0.611,0-1.005,1.18-1.267,1.66h-3.8l-2.926-3.801V36.229h3.843
		c0.743,1.571,1.922,3.451,2.621,4.279c0.83,1.049,2.184,2.098,3.844,2.098c0.916,0,2.183-0.525,2.183-1.66
		c0-1.617-3.624-2.402-5.371-3.363C47.458,35.879,43.702,32.167,43.702,26.227z M49.336,24.829c0-1.704,1.136-3.582,3.581-3.582
		c1.879,0,4.019,1.442,4.805,2.445c0.655,0.83,1.179,2.054,1.485,3.363h2.14v-8.21h-2.14c-0.307,0.306-0.656,0.655-1.18,0.655
		c-0.655,0-1.311-0.218-2.009-0.437c-0.83-0.262-2.271-0.524-3.626-0.524c-4.323,0-7.86,2.883-7.86,7.512
		c0,4.367,1.571,6.813,5.503,8.472l3.406,1.398c1.442,0.612,3.757,1.66,3.757,4.15c0,1.746-1.354,3.318-3.189,3.318
		c-2.97,0-5.153-1.441-6.245-3.188c-0.698-1.092-1.136-2.053-1.354-3.232h-2.184v9.391h2.184c0.394-0.787,0.875-1.66,1.573-1.66
		c0.699,0,1.485,0.393,2.489,0.873c0.96,0.48,2.445,1.049,4.105,1.049c4.454,0,7.861-3.318,7.861-8.256
		c0-5.24-2.533-7.599-8.255-9.301C50.864,28.104,49.292,27.319,49.336,24.829z M58.9,32.123c-1.397-0.35-2.228-0.35-3.014,0
		c-0.916-0.35-1.878-0.35-2.97,0c2.49,0.524,4.455,0.873,5.722,1.354c1.441,2.184,1.79,4.543,0.611,7.949
		c-0.087-3.318-1.571-5.766-3.145-6.202c-0.306-0.96-0.917-2.053-3.362-3.101c-0.874-0.35-1.879-0.35-2.752,0
		c-0.917-0.35-1.572-0.35-2.14,0c-1.966-1.616-2.533-3.408-2.533-6.071c0-4.149,3.363-6.727,6.595-6.727
		c1.528,0,2.489,0.044,3.319,0.263c0.873,0.261,2.009,0.655,2.882,0.655c0.655,0,1.093-0.35,1.354-0.655h1.136v6.726h-0.83
		c-0.567-2.97-3.45-5.809-6.857-5.809c-3.145,0-4.323,2.271-4.323,4.192c0,2.315,0.874,3.669,3.625,4.585
		C55.015,30.245,57.503,30.944,58.9,32.123z M52.917,32.035c-2.795-1.398-4.018-2.62-3.974-4.367
		c-1.136-0.787-1.659-2.096-1.616-4.543c-0.611,1.661-1.092,3.626-1.048,5.286c1.179,1.616,3.013,2.708,6.464,3.625H52.917z
		 M80.604,18.06l4.893,5.109l4.672,17.995c0.393,1.396,1.397,3.406,2.795,4.279v5.373H81.653l-1.137-1.529v1.529H69.423
		l-3.013-4.018v-3.582l1.136-0.35c1.092-0.35,1.877-1.791,2.882-5.46l5.197-19.347H80.604z M79.993,37.451l0.306,1.311
		c0.698,3.318,0.175,4.455-0.961,4.805l-1.136,0.305v2.49h10.744v-2.49l-1.223-0.48c-0.742-0.262-1.485-1.529-2.271-4.586
		l-5.153-19.959h-4.063l-5.022,18.562c-1.223,4.499-1.965,5.81-3.058,6.159l-0.961,0.305v2.49h9.259v-2.49l-1.136-0.305
		c-0.96-0.35-1.614-2.229-0.96-4.805l0.35-1.311H79.993z M76.892,19.588h2.752l3.275,12.535c-0.523-0.35-1.049-0.35-1.572,0
		c0.262,0.568,0.961,1.484,1.703,2.14c-0.219,1.79-0.305,3.625,0.219,7.163c-1.136-3.537-1.834-5.154-3.014-7.163
		c0.438-0.656,0.918-1.572,0.961-2.14c-0.655-0.35-1.223-0.35-1.572,0l-1.878-8.691h-0.087l-2.36,8.691
		c-0.523-0.35-1.134-0.35-1.789,0L76.892,19.588z M75.713,33.563l1.834-6.682h0.175l1.441,6.682H75.713z M81.347,32.079
		c0-1.529,0.175-2.402,0.437-3.058c-0.786-1.048-1.441-2.62-2.62-5.896c0.393,3.276,0.35,4.848,0.131,5.896
		c0.654,0.655,1.267,1.529,1.922,3.058H81.347z M105.276,40.291c0,1.178,0.874,1.484,1.573,1.484c0.829,0,1.616-1.049,1.616-2.664
		v-2.447h4.236l3.275,4.412v9.74H95.581l-2.795-3.67v-4.018l1.703-0.262c0.83-0.176,1.135-1.398,1.135-2.926V25.047
		c0-2.008-0.611-2.621-1.44-2.708l-1.397-0.262V18.06h12.098l3.232,4.279v3.45l-1.354,0.218c-0.787,0.088-1.486,1.005-1.486,3.363
		V40.291z M96.368,40.16c0,2.008-0.35,3.275-1.398,3.492l-1.398,0.219v2.49h18.432v-8.954h-2.752v2.403c0,2.096-1.092,3.1-4.148,3.1
		c-3.188,0-3.801-1.398-3.801-3.887V25.047c0-2.053,0.525-3.319,1.398-3.494l1.398-0.218v-2.49H93.571v2.49l1.398,0.218
		c0.873,0.174,1.398,1.441,1.398,3.494V40.16z M97.153,25.047c0-3.319-0.916-4.149-1.703-4.323l-1.135-0.175v-0.96h9.04v0.96
		l-1.136,0.175c-0.787,0.174-1.704,1.004-1.704,4.323v7.076c-0.436-0.35-1.047-0.35-1.614,0c0.262,0.568,0.742,1.484,1.397,2.14
		c-0.655,1.44-1.136,3.45-1.442,7.163c-0.305-3.713-0.785-5.722-1.44-7.163c0.655-0.656,1.136-1.572,1.354-2.14
		c-0.612-0.35-1.18-0.35-1.617,0V25.047z M98.901,32.079c0.262-1.529,0.742-2.402,1.397-3.058c-0.655-1.048-1.136-2.62-1.442-5.896
		c-0.305,3.276-0.785,4.848-1.44,5.896c0.655,0.655,1.136,1.529,1.354,3.058H98.901z M138.205,22.339v11.924h-4.192l-2.752-3.668
		v13.188l2.795,3.713v3.32h-12.49l-2.796-3.67v-4.018l1.66-0.262c0.873-0.176,1.136-1.398,1.136-2.926v-5.678h-2.883l-4.063-3.668
		V18.06h20.353L138.205,22.339z M115.406,29.808h2.577v-2.446c0-2.577,0.655-5.416,2.534-5.416c1.659,0,1.833,2.576,1.833,4.237
		V40.16c0,2.008-0.35,3.275-1.44,3.492l-1.397,0.219v2.49h10.569v-2.49l-1.354-0.219c-1.137-0.217-1.484-1.484-1.484-3.492V26.184
		c0-1.661,0.174-4.237,1.833-4.237c1.879,0,2.533,2.839,2.533,5.416v2.446h2.577V18.846h-18.78V29.808z M133.443,19.588v9.478
		h-1.091v-1.529c0-2.751-0.568-6.333-3.276-6.333c-1.878,0-2.576,1.572-2.576,4.193v6.726c-0.393-0.35-1.005-0.35-1.616,0
		c0.262,0.568,0.743,1.484,1.354,2.14c-0.61,1.44-1.092,3.45-1.44,7.163c-0.306-3.713-0.786-5.722-1.398-7.163
		c0.612-0.656,1.093-1.572,1.354-2.14c-0.568-0.35-1.179-0.35-1.659,0v-6.726c0-2.621-0.699-4.193-2.576-4.193
		c-2.709,0-3.276,3.582-3.276,6.333v1.529h-1.092v-9.478H133.443z M124.884,32.079c0.262-1.529,0.743-2.402,1.311-3.058
		c-0.567-1.048-1.049-2.62-1.397-5.896c-0.306,3.276-0.786,4.848-1.398,5.896c0.612,0.655,1.093,1.529,1.354,3.058H124.884z"/>
	<g>
		<path fill="#DCA850" d="M56.51,58.715c0,2.779-2.011,4.461-5.338,4.461H48.01v3.875h-1.828V54.256h4.99
			C54.5,54.256,56.51,55.938,56.51,58.715z M54.682,58.715c0-1.827-1.225-2.869-3.564-2.869H48.01v5.74h3.107
			C53.458,61.586,54.682,60.543,54.682,58.715z"/>
		<path fill="#DCA850" d="M69.453,63.852h-6.8l-1.407,3.199h-1.883l5.794-12.795h1.81l5.813,12.795H70.86L69.453,63.852z
			 M68.813,62.39l-2.76-6.271l-2.76,6.271H68.813z"/>
		<path fill="#DCA850" d="M77.424,54.256h1.828v11.205h6.928v1.59h-8.756V54.256z"/>
		<path fill="#DCA850" d="M99.23,63.852h-6.8l-1.407,3.199h-1.883l5.795-12.795h1.81l5.813,12.795h-1.92L99.23,63.852z
			 M98.592,62.39l-2.761-6.271L93.07,62.39H98.592z"/>
		<path fill="#DCA850" d="M105.977,60.653c0-3.784,2.889-6.544,6.782-6.544c1.975,0,3.692,0.676,4.862,1.992l-1.188,1.152
			c-0.987-1.043-2.194-1.518-3.602-1.518c-2.889,0-5.027,2.084-5.027,4.917s2.139,4.917,5.027,4.917
			c1.407,0,2.614-0.493,3.602-1.535l1.188,1.151c-1.17,1.316-2.888,2.011-4.881,2.011C108.865,67.197,105.977,64.438,105.977,60.653
			z"/>
		<path fill="#DCA850" d="M132.265,65.461v1.59h-9.287V54.256h9.031v1.59h-7.203v3.93h6.417v1.555h-6.417v4.131H132.265z"/>
	</g>
	<linearGradient id="SVGID_2_" gradientUnits="userSpaceOnUse" x1="3.856" y1="59.3721" x2="45.0337" y2="18.1943">
		<stop  offset="0.0061" style="stop-color:#D6A047"/>
		<stop  offset="0.0162" style="stop-color:#DAA84E"/>
		<stop  offset="0.0681" style="stop-color:#EACA6D"/>
		<stop  offset="0.1175" style="stop-color:#F5E283"/>
		<stop  offset="0.1627" style="stop-color:#FDF190"/>
		<stop  offset="0.2" style="stop-color:#FFF695"/>
		<stop  offset="0.4466" style="stop-color:#FFF695"/>
		<stop  offset="0.4848" style="stop-color:#FFF695"/>
		<stop  offset="0.8" style="stop-color:#D6A047"/>
	</linearGradient>
	<path fill="url(#SVGID_2_)" d="M6.344,47.869h2.545v2.553H6.344V47.869z M6.344,56.133h2.545V53.58H6.344V56.133z M6.304,46.186
		v-15.64H5.795l3.639-9.981v-2.863h0.068h0.067v0.061c0.13,0.097,0.474,0.278,1.241,0.286c1.052,0.011,1.724,0.608,1.724,0.608
		s-1.221,0.052-1.802,0.41c-0.47,0.289-0.982,0.114-1.163,0.037v1.46l1.634,4.481l3.255-8.929v-2.152h0.067h0.068v0.058
		c0.109,0.076,0.371,0.198,0.919,0.203c0.793,0.009,1.3,0.459,1.3,0.459s-0.921,0.04-1.359,0.309
		c-0.341,0.209-0.711,0.095-0.859,0.035v1.13h-0.002l1.988,5.454l5.409-14.836V0.141h0.068h0.067V0.21
		c0.215,0.194,0.993,0.731,3.034,0.752c2.492,0.027,4.083,1.441,4.083,1.441s-2.892,0.125-4.269,0.972
		c-1.208,0.743-2.537,0.193-2.849,0.045v3.356l5.393,14.792l1.979-5.429v-2.143h0.068h0.068v0.058
		c0.109,0.075,0.371,0.198,0.919,0.204c0.793,0.008,1.299,0.458,1.299,0.458s-0.92,0.04-1.357,0.309
		c-0.342,0.21-0.713,0.097-0.86,0.035v1.078l3.246,8.906l1.634-4.481v-2.833h0.067h0.068v0.061c0.129,0.098,0.473,0.278,1.24,0.286
		c1.053,0.012,1.724,0.608,1.724,0.608s-1.221,0.053-1.802,0.41c-0.47,0.289-0.982,0.115-1.162,0.037v1.431l3.639,9.981h-0.509
		v15.64h-6.396h-6.557v-3.434v-1.777c0-1.063-1.203-1.924-2.7-1.951c-0.022,0-0.045-0.002-0.067-0.002
		c-1.528,0-2.768,0.875-2.768,1.953v1.777v3.434h-3.134v-0.021h-6.044v0.021H6.304z M35.24,35.43h1.657v-1.297
		c0-0.458-0.371-0.83-0.828-0.83c-0.458,0-0.829,0.372-0.829,0.83V35.43z M33.582,39.43h1.658v-1.299
		c0-0.457-0.371-0.829-0.829-0.829s-0.829,0.372-0.829,0.829V39.43z M28.491,32.328h2.261V30.56c0-0.625-0.506-1.13-1.13-1.13
		c-0.625,0-1.131,0.506-1.131,1.13V32.328z M23.361,28.871v2.065H26v-2.065c0-0.729-0.591-1.32-1.319-1.32
		C23.951,27.551,23.361,28.141,23.361,28.871z M20.41,24.702c0,0.9,0.73,1.63,1.631,1.63s1.63-0.729,1.63-1.63
		c0-0.901-0.729-1.631-1.63-1.631S20.41,23.801,20.41,24.702z M18.081,30.936h2.64v-2.065c0-0.729-0.59-1.32-1.319-1.32
		c-0.729,0-1.32,0.59-1.32,1.32V30.936z M13.037,32.328h2.26V30.56c0-0.625-0.506-1.13-1.13-1.13s-1.13,0.506-1.13,1.13V32.328z
		 M8.876,38.131v1.299h1.658v-1.299c0-0.457-0.372-0.829-0.829-0.829C9.247,37.302,8.876,37.674,8.876,38.131z M7.219,35.43h1.657
		v-1.297c0-0.458-0.371-0.83-0.829-0.83s-0.828,0.372-0.828,0.83V35.43z M12.036,67.553h2.546V65h-2.546V67.553z M6.344,61.842
		h2.545v-2.553H6.344V61.842z M17.729,61.842h2.546v-2.553h-2.546V61.842z M35.099,67.262h1.964v-1.971h-1.964V67.262z
		 M29.116,56.133h2.544V53.58h-2.544V56.133z M29.405,61.551h1.965v-1.969h-1.965V61.551z M35.099,61.551h1.964v-1.969h-1.964
		V61.551z M34.809,56.133h2.546V53.58h-2.546V56.133z M29.405,67.262h1.965v-1.971h-1.965V67.262z M17.805,56.096h2.513v-2.67
		h-2.513V56.096z M23.712,67.262h1.965v-1.971h-1.965V67.262z M18.021,67.262h1.964v-1.971h-1.964V67.262z M12.036,55.979h2.546
		v-2.553h-2.546V55.979z M12.036,50.422h2.546v-2.553h-2.546V50.422z M12.036,61.842h2.546v-2.553h-2.546V61.842z M23.423,61.842
		h2.545v-2.553h-2.545V61.842z M23.423,56.133h2.545V53.58h-2.545V56.133z M29.569,50.844h4.383v-4.396h-4.383V50.844z
		 M19.297,50.844h5.379v-4.396h-5.379V50.844z M24.931,50.844h4.384v-4.396h-4.384V50.844z M34.206,50.844h3.586v-4.396h-3.586
		V50.844z"/>
</g>
</svg>
