<?xml version="1.0" encoding="utf-8"?>
<!-- Generator: Adobe Illustrator 15.0.0, SVG Export Plug-In . SVG Version: 6.00 Build 0)  -->
<!DOCTYPE svg PUBLIC "-//W3C//DTD SVG 1.1//EN" "http://www.w3.org/Graphics/SVG/1.1/DTD/svg11.dtd">
<svg version="1.1" id="Capa_1" xmlns="http://www.w3.org/2000/svg" xmlns:xlink="http://www.w3.org/1999/xlink" x="0px" y="0px"
	 width="72px" height="72px" viewBox="94.68 0 72 72" enable-background="new 94.68 0 72 72" xml:space="preserve">
<path fill="#E7B809" d="M157.68,0h-54c-4.963,0-9,4.037-9,9v54.001c0,4.963,4.036,8.999,9,8.999h27V47.25h-9V36h9v-9
	c0-7.456,6.043-13.5,13.5-13.5h9v11.25h-4.5c-2.484,0-4.5-0.233-4.5,2.25v9h11.25l-4.5,11.25h-6.75V72h13.5c4.963,0,9-4.036,9-8.999
	V9C166.68,4.037,162.643,0,157.68,0z"/>
</svg>
