<?xml version="1.0" encoding="utf-8"?>
<!-- Generator: Adobe Illustrator 15.0.0, SVG Export Plug-In . SVG Version: 6.00 Build 0)  -->
<!DOCTYPE svg PUBLIC "-//W3C//DTD SVG 1.1//EN" "http://www.w3.org/Graphics/SVG/1.1/DTD/svg11.dtd">
<svg version="1.1" id="Layer_1" xmlns="http://www.w3.org/2000/svg" xmlns:xlink="http://www.w3.org/1999/xlink" x="0px" y="0px"
	 width="144px" height="144px" viewBox="0 0 144 144" enable-background="new 0 0 144 144" xml:space="preserve">
<g>
	<rect x="115.071" y="7" fill="#FFFFFF" width="5.817" height="130.494"/>
	<rect x="2.032" y="30.273" fill="#FFFFFF" width="140.468" height="5.818"/>
	<rect x="2.032" y="113.805" fill="#FFFFFF" width="140.468" height="5.819"/>
	<g>
		<path fill="#FFFFFF" d="M42.349,110.585c-1.118-0.326-2.049-0.676-3.109-1.106c-0.174-0.069-0.361-0.104-0.536-0.116
			c-1.781-0.116-3.434-1.42-3.434-3.981c0-2.363,1.49-4.121,3.842-4.121c2.387,0,3.702,1.815,3.702,3.958
			c0,1.781-0.827,3.039-1.851,3.504v0.047c0.594,0.175,1.269,0.314,1.886,0.442L42.349,110.585z M39.054,107.954
			c1.199,0,1.886-1.13,1.886-2.667c0-1.432-0.675-2.619-1.886-2.619s-1.91,1.176-1.91,2.654c0,1.502,0.71,2.632,1.898,2.632H39.054z
			"/>
		<path fill="#FFFFFF" d="M49.317,107.406c0,0.745,0.023,1.351,0.047,1.828h-1.537l-0.081-0.804h-0.035
			c-0.221,0.35-0.757,0.932-1.781,0.932c-1.164,0-2.002-0.722-2.002-2.479v-3.342h1.77v3.063c0,0.826,0.268,1.327,0.896,1.327
			c0.489,0,0.78-0.338,0.885-0.617c0.046-0.104,0.07-0.233,0.07-0.385v-3.388h1.77V107.406z"/>
		<path fill="#FFFFFF" d="M52.097,106.94c0.058,0.745,0.78,1.095,1.607,1.095c0.605,0,1.094-0.081,1.572-0.244l0.232,1.199
			c-0.582,0.244-1.292,0.36-2.061,0.36c-1.933,0-3.039-1.117-3.039-2.91c0-1.444,0.908-3.039,2.875-3.039
			c1.84,0,2.538,1.433,2.538,2.841c0,0.303-0.035,0.57-0.058,0.71L52.097,106.94z M54.181,105.73c0-0.42-0.186-1.153-0.989-1.153
			c-0.757,0-1.06,0.688-1.106,1.153H54.181z"/>
		<path fill="#FFFFFF" d="M58.241,106.94c0.058,0.745,0.78,1.095,1.607,1.095c0.605,0,1.094-0.081,1.572-0.244l0.232,1.199
			c-0.582,0.244-1.292,0.36-2.061,0.36c-1.933,0-3.039-1.117-3.039-2.91c0-1.444,0.908-3.039,2.875-3.039
			c1.84,0,2.538,1.433,2.538,2.841c0,0.303-0.035,0.57-0.058,0.71L58.241,106.94z M60.325,105.73c0-0.42-0.186-1.153-0.99-1.153
			c-0.756,0-1.059,0.688-1.106,1.153H60.325z"/>
		<path fill="#FFFFFF" d="M63.022,105.357c0-0.71-0.023-1.304-0.046-1.816h1.537l0.082,0.792h0.035
			c0.233-0.373,0.803-0.92,1.758-0.92c1.165,0,2.038,0.78,2.038,2.457v3.364h-1.77v-3.155c0-0.733-0.256-1.234-0.896-1.234
			c-0.489,0-0.78,0.338-0.908,0.664c-0.046,0.116-0.058,0.279-0.058,0.442v3.283h-1.77V105.357z"/>
		<path fill="#FFFFFF" d="M69.83,107.697c0.326,0.198,1.001,0.42,1.525,0.42c0.536,0,0.757-0.175,0.757-0.466
			c0-0.303-0.175-0.442-0.827-0.664c-1.188-0.384-1.642-1.036-1.63-1.7c0-1.07,0.908-1.874,2.317-1.874
			c0.664,0,1.246,0.163,1.595,0.338l-0.303,1.211c-0.257-0.128-0.757-0.314-1.234-0.314c-0.431,0-0.675,0.175-0.675,0.454
			s0.221,0.419,0.92,0.663c1.083,0.361,1.525,0.92,1.537,1.747c0,1.07-0.826,1.851-2.457,1.851c-0.745,0-1.409-0.175-1.839-0.407
			L69.83,107.697z"/>
		<path fill="#FFFFFF" d="M76.114,103.541l0.466,2.34c0.104,0.583,0.221,1.211,0.314,1.863h0.035
			c0.104-0.641,0.279-1.292,0.407-1.852l0.605-2.352h1.396l0.571,2.271c0.162,0.652,0.313,1.28,0.419,1.933h0.023
			c0.081-0.641,0.197-1.292,0.337-1.944l0.478-2.259h1.734l-1.746,5.693h-1.653l-0.535-1.991c-0.151-0.559-0.256-1.07-0.373-1.781
			h-0.022c-0.105,0.711-0.222,1.246-0.361,1.77l-0.57,2.003h-1.665l-1.665-5.693H76.114z"/>
		<path fill="#FFFFFF" d="M88.38,107.86c0,0.536,0.023,1.06,0.094,1.374h-1.595l-0.105-0.57h-0.035
			c-0.372,0.454-0.954,0.698-1.63,0.698c-1.152,0-1.839-0.838-1.839-1.746c0-1.479,1.327-2.178,3.341-2.178v-0.069
			c0-0.303-0.163-0.733-1.036-0.733c-0.582,0-1.199,0.198-1.571,0.419l-0.326-1.129c0.396-0.222,1.176-0.513,2.212-0.513
			c1.897,0,2.491,1.118,2.491,2.457V107.86z M86.669,106.545c-0.932,0-1.653,0.222-1.653,0.896c0,0.454,0.303,0.676,0.698,0.676
			c0.431,0,0.804-0.292,0.92-0.652c0.023-0.094,0.035-0.198,0.035-0.303V106.545z"/>
		<path fill="#FFFFFF" d="M90.892,103.541l0.851,2.794c0.093,0.338,0.209,0.757,0.279,1.06h0.035
			c0.081-0.303,0.174-0.733,0.256-1.06l0.698-2.794h1.897l-1.327,3.749c-0.814,2.259-1.362,3.155-2.002,3.726
			c-0.605,0.535-1.258,0.733-1.712,0.78l-0.372-1.49c0.221-0.047,0.5-0.151,0.769-0.303c0.268-0.14,0.57-0.431,0.733-0.71
			c0.058-0.094,0.093-0.175,0.093-0.257c0-0.058-0.012-0.151-0.07-0.291l-2.095-5.204H90.892z"/>
		<path fill="#FFFFFF" d="M102.729,105.916h-2.888v1.863h3.225v1.455h-4.994v-7.847h4.831v1.455h-3.062v1.63h2.888V105.916z"/>
		<path fill="#FFFFFF" d="M105.019,109.362c-0.594,0-1.024-0.454-1.024-1.071c0-0.64,0.431-1.082,1.048-1.082
			c0.605,0,1.024,0.431,1.036,1.082c0,0.617-0.419,1.071-1.048,1.071H105.019z"/>
	</g>
	<g>
		<path fill="#FFFFFF" d="M42.413,16.309c0.652-0.117,1.502-0.175,2.387-0.175c1.502,0,2.479,0.245,3.225,0.815
			c0.815,0.605,1.328,1.583,1.328,2.98c0,1.502-0.547,2.538-1.292,3.178c-0.827,0.687-2.096,1.013-3.632,1.013
			c-0.92,0-1.583-0.058-2.014-0.117V16.309z M44.183,22.7c0.151,0.035,0.407,0.035,0.617,0.035c1.618,0.011,2.678-0.874,2.678-2.748
			c0-1.688-0.955-2.491-2.492-2.491c-0.384,0-0.652,0.035-0.803,0.07V22.7z"/>
		<path fill="#FFFFFF" d="M55.844,22.211c0,0.745,0.023,1.35,0.047,1.828h-1.537l-0.081-0.803h-0.035
			c-0.221,0.349-0.757,0.931-1.781,0.931c-1.164,0-2.002-0.722-2.002-2.479v-3.342h1.77v3.062c0,0.827,0.268,1.328,0.896,1.328
			c0.489,0,0.78-0.338,0.885-0.617c0.046-0.105,0.07-0.233,0.07-0.384v-3.388h1.77V22.211z"/>
		<path fill="#FFFFFF" d="M57.261,20.162c0-0.71-0.023-1.304-0.046-1.816h1.537l0.082,0.792h0.035
			c0.233-0.373,0.803-0.92,1.758-0.92c1.165,0,2.038,0.78,2.038,2.457v3.365h-1.77v-3.155c0-0.733-0.256-1.234-0.896-1.234
			c-0.489,0-0.78,0.337-0.908,0.664c-0.046,0.116-0.058,0.279-0.058,0.442v3.283h-1.77V20.162z"/>
		<path fill="#FFFFFF" d="M69.598,15.773v6.566c0,0.652,0.023,1.315,0.047,1.7h-1.572l-0.07-0.827h-0.035
			c-0.349,0.629-1.048,0.955-1.781,0.955c-1.351,0-2.433-1.152-2.433-2.922c-0.012-1.91,1.188-3.027,2.55-3.027
			c0.71,0,1.246,0.256,1.501,0.641h0.023v-3.085H69.598z M67.829,20.768c0-0.105,0-0.221-0.023-0.326
			c-0.104-0.477-0.489-0.861-1.036-0.861c-0.815,0-1.222,0.722-1.222,1.618c0,0.955,0.477,1.56,1.211,1.56
			c0.512,0,0.931-0.349,1.036-0.85c0.023-0.117,0.035-0.256,0.035-0.396V20.768z"/>
		<path fill="#FFFFFF" d="M75.753,22.665c0,0.536,0.023,1.06,0.094,1.374h-1.595l-0.105-0.57h-0.035
			c-0.372,0.454-0.954,0.698-1.629,0.698c-1.153,0-1.84-0.838-1.84-1.746c0-1.479,1.328-2.177,3.341-2.177v-0.07
			c0-0.303-0.163-0.733-1.036-0.733c-0.582,0-1.199,0.198-1.571,0.419L71.05,18.73c0.396-0.221,1.176-0.512,2.212-0.512
			c1.897,0,2.491,1.118,2.491,2.457V22.665z M74.042,21.35c-0.932,0-1.653,0.221-1.653,0.896c0,0.454,0.303,0.675,0.698,0.675
			c0.431,0,0.804-0.291,0.92-0.652c0.023-0.093,0.035-0.198,0.035-0.303V21.35z"/>
		<path fill="#FFFFFF" d="M77.147,22.502c0.326,0.198,1.002,0.419,1.525,0.419c0.535,0,0.757-0.175,0.757-0.466
			c0-0.303-0.175-0.442-0.826-0.664c-1.188-0.384-1.642-1.036-1.631-1.7c0-1.071,0.908-1.875,2.317-1.875
			c0.663,0,1.246,0.163,1.595,0.338l-0.303,1.21c-0.256-0.128-0.757-0.314-1.233-0.314c-0.432,0-0.676,0.174-0.676,0.454
			c0,0.28,0.222,0.419,0.92,0.664c1.083,0.361,1.525,0.919,1.537,1.746c0,1.071-0.827,1.851-2.457,1.851
			c-0.745,0-1.408-0.174-1.84-0.407L77.147,22.502z"/>
		<path fill="#FFFFFF" d="M84.676,22.223c0.466,0.245,1.211,0.489,1.968,0.489c0.815,0,1.246-0.338,1.246-0.862
			c0-0.477-0.373-0.768-1.315-1.094c-1.305-0.466-2.166-1.188-2.166-2.34c0-1.339,1.13-2.352,2.969-2.352
			c0.896,0,1.537,0.175,2.003,0.396l-0.396,1.42c-0.303-0.151-0.874-0.373-1.631-0.373c-0.768,0-1.141,0.361-1.141,0.757
			c0,0.5,0.431,0.722,1.455,1.117c1.386,0.513,2.026,1.234,2.026,2.352c0,1.315-1.001,2.433-3.155,2.433
			c-0.896,0-1.781-0.244-2.224-0.489L84.676,22.223z"/>
		<path fill="#FFFFFF" d="M92.765,16.797v1.548h1.269v1.304h-1.269v2.072c0,0.687,0.175,1.001,0.698,1.001
			c0.245,0,0.361-0.012,0.524-0.047l0.012,1.339c-0.222,0.082-0.652,0.151-1.142,0.151c-0.57,0-1.048-0.198-1.339-0.489
			c-0.325-0.338-0.488-0.885-0.488-1.688v-2.34h-0.757v-1.304h0.757v-1.071L92.765,16.797z"/>
		<path fill="#FFFFFF" d="M95.87,24.167c-0.594,0-1.024-0.454-1.024-1.071c0-0.641,0.431-1.083,1.048-1.083
			c0.605,0,1.024,0.431,1.036,1.083c0,0.617-0.419,1.071-1.048,1.071H95.87z"/>
		<path fill="#FFFFFF" d="M102.727,20.721h-2.888v1.863h3.225v1.455h-4.994v-7.847h4.831v1.456h-3.062v1.63h2.888V20.721z"/>
		<path fill="#FFFFFF" d="M105.017,24.167c-0.594,0-1.024-0.454-1.024-1.071c0-0.641,0.431-1.083,1.048-1.083
			c0.605,0,1.024,0.431,1.036,1.083c0,0.617-0.419,1.071-1.048,1.071H105.017z"/>
	</g>
	<g>
		<path fill="#FFFFFF" d="M132.852,46.576c0.116,0.652,0.175,1.502,0.175,2.387c0,1.502-0.244,2.479-0.815,3.225
			c-0.605,0.815-1.583,1.328-2.98,1.328c-1.502,0-2.538-0.547-3.178-1.292c-0.688-0.827-1.013-2.096-1.013-3.632
			c0-0.92,0.058-1.583,0.116-2.014H132.852z M126.46,48.345c-0.035,0.151-0.035,0.407-0.035,0.617
			c-0.012,1.618,0.873,2.678,2.748,2.678c1.688,0,2.491-0.955,2.491-2.492c0-0.384-0.035-0.652-0.069-0.803H126.46z"/>
		<path fill="#FFFFFF" d="M125.121,54.639h5.693v1.77h-5.693V54.639z M131.56,55.513c0-0.594,0.419-0.978,0.942-0.978
			c0.536,0,0.943,0.396,0.943,1.001c0,0.605-0.407,0.978-0.943,0.99c-0.523,0-0.942-0.384-0.942-1.001V55.513z"/>
		<path fill="#FFFFFF" d="M130.814,59.178l-0.955,0.559c-0.291,0.163-0.57,0.314-0.85,0.466v0.023
			c0.314,0.151,0.594,0.291,0.885,0.442l0.92,0.501v1.921l-2.713-1.875l-2.98,1.898v-2.003l1.024-0.57
			c0.279-0.163,0.57-0.314,0.861-0.442v-0.035c-0.303-0.14-0.582-0.291-0.861-0.431l-1.024-0.536v-1.944l2.899,1.933l2.794-1.886
			V59.178z"/>
		<path fill="#FFFFFF" d="M125.121,63.867h5.693v1.77h-5.693V63.867z M131.56,64.74c0-0.594,0.419-0.978,0.942-0.978
			c0.536,0,0.943,0.396,0.943,1.001c0,0.605-0.407,0.978-0.943,0.99c-0.523,0-0.942-0.384-0.942-1.001V64.74z"/>
		<path fill="#FFFFFF" d="M127.415,68.417c-0.745,0.058-1.095,0.78-1.095,1.607c0,0.605,0.081,1.094,0.244,1.572l-1.199,0.232
			c-0.244-0.582-0.36-1.292-0.36-2.061c0-1.933,1.117-3.039,2.91-3.039c1.444,0,3.039,0.908,3.039,2.875
			c0,1.84-1.433,2.538-2.841,2.538c-0.303,0-0.57-0.035-0.71-0.058L127.415,68.417z M128.625,70.501c0.42,0,1.153-0.186,1.153-0.989
			c0-0.757-0.688-1.06-1.153-1.106V70.501z"/>
		<path fill="#FFFFFF" d="M132.852,75.607c0.104,0.57,0.175,1.408,0.175,2.363c0,1.164-0.175,1.979-0.629,2.538
			c-0.372,0.478-0.92,0.733-1.642,0.733c-0.989,0-1.677-0.71-1.921-1.386H128.8c-0.221,0.548-0.733,0.851-1.455,1.048
			c-0.896,0.245-1.921,0.478-2.224,0.629v-1.816c0.222-0.116,0.861-0.314,1.828-0.535c0.989-0.222,1.245-0.559,1.257-1.292v-0.524
			h-3.085v-1.758H132.852z M129.487,77.365v0.698c0,0.885,0.442,1.409,1.129,1.409c0.71,0,1.083-0.489,1.083-1.304
			c0-0.431-0.023-0.676-0.059-0.804H129.487z"/>
		<path fill="#FFFFFF" d="M133.388,87.991h-6.566c-0.652,0-1.316,0.023-1.7,0.047v-1.572l0.826-0.069v-0.035
			c-0.628-0.35-0.954-1.048-0.954-1.781c0-1.351,1.152-2.434,2.922-2.434c1.909-0.012,3.027,1.188,3.027,2.55
			c0,0.711-0.256,1.246-0.641,1.502v0.023h3.086V87.991z M128.393,86.222c0.104,0,0.222,0,0.326-0.023
			c0.478-0.104,0.861-0.488,0.861-1.036c0-0.814-0.722-1.223-1.618-1.223c-0.955,0-1.561,0.478-1.561,1.211
			c0,0.513,0.35,0.932,0.851,1.036c0.116,0.023,0.256,0.035,0.396,0.035H128.393z"/>
		<path fill="#FFFFFF" d="M124.993,89.967c0-0.594,0.454-1.024,1.071-1.024c0.64,0,1.082,0.431,1.082,1.048
			c0,0.605-0.431,1.024-1.082,1.036c-0.617,0-1.071-0.419-1.071-1.048V89.967z"/>
	</g>
	<path fill="#FFFFFF" d="M117.981,76.818H31.539c-4.591,0-8.312-3.721-8.312-8.312V7H18.24v66.494c0,4.591,3.721,8.312,8.312,8.312
		h91.43V76.818z"/>
	<g>
		<path fill="#FFFFFF" d="M13.138,40.127c0.08,0.399,0.15,1.197,0.15,1.966c0,0.928-0.09,1.497-0.379,1.986
			c-0.249,0.469-0.708,0.798-1.327,0.798c-0.589,0-1.138-0.349-1.427-1.098h-0.02c-0.2,0.769-0.789,1.337-1.657,1.337
			c-0.619,0-1.098-0.28-1.427-0.699c-0.389-0.489-0.609-1.307-0.609-2.645c0-0.749,0.05-1.307,0.1-1.646H13.138z M7.59,41.634
			c-0.03,0.15-0.03,0.329-0.03,0.589c0,0.688,0.27,1.297,0.978,1.297c0.679,0,0.948-0.609,0.948-1.367v-0.519H7.59z M10.574,41.634
			v0.499c0,0.808,0.329,1.228,0.828,1.228c0.509,0,0.778-0.389,0.778-1.078c0-0.339-0.02-0.529-0.05-0.648H10.574z"/>
		<path fill="#FFFFFF" d="M13.598,46.102v1.517H6.512v-1.517H13.598z"/>
		<path fill="#FFFFFF" d="M8.079,53.434c-0.639,0-1.158,0.02-1.567,0.04v-1.317l0.688-0.07v-0.03
			c-0.299-0.189-0.798-0.648-0.798-1.527c0-0.998,0.619-1.716,2.125-1.716h2.864v1.517H8.768c-0.708,0-1.138,0.229-1.138,0.769
			c0,0.419,0.29,0.668,0.529,0.758c0.09,0.04,0.2,0.06,0.33,0.06h2.904v1.517H8.079z"/>
		<path fill="#FFFFFF" d="M9.835,54.649c0.608,0,1.118-0.02,1.557-0.04v1.317l-0.679,0.07v0.03c0.319,0.2,0.789,0.688,0.789,1.507
			c0,0.998-0.669,1.747-2.106,1.747H6.512v-1.517h2.705c0.628,0,1.058-0.219,1.058-0.769c0-0.419-0.29-0.668-0.569-0.778
			c-0.1-0.04-0.239-0.05-0.379-0.05H6.512v-1.517H9.835z"/>
		<path fill="#FFFFFF" d="M13.598,65.224H7.969c-0.559,0-1.128,0.02-1.457,0.04v-1.347l0.708-0.06v-0.03
			c-0.539-0.299-0.818-0.898-0.818-1.527c0-1.158,0.988-2.086,2.505-2.086c1.637-0.01,2.595,1.018,2.595,2.186
			c0,0.609-0.22,1.068-0.549,1.288v0.02h2.645V65.224z M9.316,63.707c0.09,0,0.189,0,0.279-0.02c0.409-0.09,0.739-0.419,0.739-0.888
			c0-0.699-0.619-1.048-1.387-1.048c-0.818,0-1.337,0.409-1.337,1.038c0,0.439,0.299,0.798,0.729,0.888
			c0.1,0.02,0.22,0.03,0.339,0.03H9.316z"/>
		<path fill="#FFFFFF" d="M8.478,67.605c-0.639,0.05-0.938,0.668-0.938,1.377c0,0.519,0.07,0.938,0.209,1.347l-1.028,0.2
			c-0.209-0.499-0.309-1.108-0.309-1.766c0-1.657,0.958-2.605,2.495-2.605c1.237,0,2.604,0.779,2.604,2.465
			c0,1.577-1.228,2.175-2.435,2.175c-0.259,0-0.489-0.03-0.608-0.05L8.478,67.605z M9.516,69.392c0.359,0,0.988-0.16,0.988-0.848
			c0-0.648-0.589-0.908-0.988-0.948V69.392z"/>
		<path fill="#FFFFFF" d="M13.598,71.705v1.516H6.512v-1.516H13.598z"/>
		<path fill="#FFFFFF" d="M13.598,74.437v1.518H6.512v-1.518H13.598z"/>
		<path fill="#FFFFFF" d="M13.138,79.233c0.09,0.489,0.15,1.208,0.15,2.026c0,0.998-0.15,1.696-0.539,2.176
			c-0.319,0.408-0.788,0.628-1.407,0.628c-0.848,0-1.437-0.608-1.646-1.188h-0.03c-0.189,0.47-0.628,0.729-1.247,0.898
			c-0.769,0.21-1.647,0.409-1.906,0.539v-1.557c0.189-0.101,0.738-0.27,1.567-0.459c0.848-0.19,1.068-0.479,1.078-1.108V80.74H6.512
			v-1.507H13.138z M10.254,80.74v0.6c0,0.758,0.379,1.207,0.968,1.207c0.609,0,0.928-0.419,0.928-1.117
			c0-0.37-0.02-0.579-0.05-0.689H10.254z"/>
		<path fill="#FFFFFF" d="M13.598,89.849H7.969c-0.559,0-1.128,0.02-1.457,0.04v-1.348l0.708-0.06v-0.03
			c-0.539-0.299-0.818-0.897-0.818-1.526c0-1.157,0.988-2.086,2.505-2.086c1.637-0.01,2.595,1.019,2.595,2.186
			c0,0.608-0.22,1.068-0.549,1.287v0.021h2.645V89.849z M9.316,88.332c0.09,0,0.189,0,0.279-0.021
			c0.409-0.09,0.739-0.419,0.739-0.888c0-0.698-0.619-1.048-1.387-1.048c-0.818,0-1.337,0.409-1.337,1.038
			c0,0.438,0.299,0.798,0.729,0.888c0.1,0.021,0.22,0.03,0.339,0.03H9.316z"/>
		<path fill="#FFFFFF" d="M6.402,91.542c0-0.509,0.389-0.878,0.918-0.878c0.549,0,0.928,0.369,0.928,0.898
			c0,0.519-0.369,0.878-0.928,0.888c-0.529,0-0.918-0.359-0.918-0.898V91.542z"/>
	</g>
	<rect x="29.045" y="41.078" fill="#FFFFFF" width="10.806" height="27.013"/>
	<rect x="29.045" y="41.078" fill="#FFFFFF" width="42.39" height="10.805"/>
	<polygon fill-rule="evenodd" clip-rule="evenodd" fill="#EC1C24" points="16.175,45.001 31.426,55.479 15.837,63.98 22.973,55.193 
			"/>
	<path fill-rule="evenodd" clip-rule="evenodd" fill="#FFFFFF" d="M95.146,55.471v-0.657H92.05L95.146,55.471z M99.508,58.482
		h-0.653v3.119L99.508,58.482z M102.221,54.815L102.221,54.815c0-0.98-0.299-1.787-0.892-2.417
		c-0.589-0.632-1.405-0.949-2.449-0.949l0,0h-0.238c-0.905,0-1.66,0.298-2.257,0.896c-0.599,0.592-0.896,1.419-0.896,2.471l0,0
		c0,0.974,0.297,1.781,0.896,2.417c0.597,0.63,1.396,0.948,2.39,0.948l0,0h0.359c0.834,0,1.554-0.305,2.165-0.907
		C101.912,56.661,102.221,55.843,102.221,54.815z M98.854,51.146v-3.119L98.2,51.146H98.854z M102.558,54.159v0.654h3.103
		L102.558,54.159z M89.843,53.591l-0.342,0.087l-0.853,2.661h-0.253l-0.77-2.212l-0.758,2.212h-0.252l-0.748-2.661l-0.339-0.087
		v-0.174h1.087v0.174l-0.407,0.039l0.566,2.14l0.697-2.091l-0.344-0.087v-0.174h1.09v0.174l-0.407,0.039l0.703,2.147l0.647-2.147
		l-0.405-0.039v-0.174h1.086V53.591z M99.955,66.398c0,0.274-0.122,0.474-0.366,0.615c-0.244,0.135-0.518,0.2-0.816,0.2
		c-0.312,0-0.61-0.07-0.894-0.213l-0.039-0.818l0.251-0.037l0.087,0.68c0.217,0.091,0.43,0.134,0.634,0.134
		c0.228,0,0.415-0.048,0.568-0.154c0.159-0.101,0.237-0.234,0.237-0.391c0-0.278-0.285-0.487-0.848-0.632
		c-0.565-0.143-0.844-0.407-0.844-0.794c0-0.214,0.087-0.396,0.266-0.542c0.184-0.153,0.421-0.227,0.708-0.227
		c0.267,0,0.534,0.057,0.796,0.171l0.089,0.646l-0.254,0.036l-0.087-0.508c-0.212-0.062-0.395-0.093-0.555-0.093
		c-0.172,0-0.319,0.049-0.444,0.146c-0.122,0.096-0.18,0.218-0.18,0.37c0,0.256,0.28,0.459,0.844,0.61
		C99.676,65.744,99.955,66.008,99.955,66.398z M106.513,54.813l-3.955,0.867c-0.082,0.664-0.403,1.273-0.961,1.825
		c-0.555,0.554-1.179,0.878-1.875,0.977l-0.867,3.971l-0.867-3.971c-0.795-0.139-1.453-0.49-1.978-1.057
		c-0.524-0.568-0.811-1.153-0.864-1.745l-3.951-0.867l3.951-0.868c0.067-0.643,0.368-1.231,0.908-1.771
		c0.55-0.542,1.196-0.886,1.934-1.027l0.867-3.974l0.867,3.974c0.731,0.141,1.37,0.488,1.916,1.035
		c0.549,0.542,0.855,1.13,0.92,1.764L106.513,54.813z M110.535,55.434l-0.175,0.818h-2.264V56.08l0.428-0.087V53.55l-0.428-0.04
		v-0.172h2.092l0.172,0.708l-0.252,0.041l-0.176-0.495h-1.065v1.03h1.241v0.254h-1.241v1.124h1.241l0.175-0.601L110.535,55.434z
		 M100.637,42.791l-0.426,0.04v2.708h-0.256l-1.991-2.44v2.177l0.431,0.087v0.175h-1.197v-0.175l0.43-0.087V42.83l-0.43-0.04v-0.172
		h0.767l1.905,2.322v-2.11l-0.429-0.04v-0.172h1.196V42.791z"/>
</g>
</svg>
